<svg xmlns="http://www.w3.org/2000/svg" viewBox="0 0 24 24" fill="none">
  <style>
    rect {
      fill: black;
    }

    path {
      stroke: white;
    }

    @media (prefers-color-scheme: dark) {
      rect {
        fill: white;
      }

      path {
        stroke: black;
      }
    }
  </style>
  <rect width="24" height="24" rx="4" fill="black"/>
  <path d="M20.2111 15.1056L12.4472 11.2236C12.1657 11.0828 11.8343 11.0828 11.5528 11.2236L3.78885 15.1056C3.05181 15.4741 3.05181 16.5259 3.78886 16.8944L11.5528 20.7764C11.8343 20.9172 12.1657 20.9172 12.4472 20.7764L20.2111 16.8944C20.9482 16.5259 20.9482 15.4741 20.2111 15.1056Z" stroke="white"/>
  <path d="M20.2111 11.1056L12.4472 7.22361C12.1657 7.08284 11.8343 7.08284 11.5528 7.22361L3.78885 11.1056C3.05181 11.4741 3.05181 12.5259 3.78886 12.8944L11.5528 16.7764C11.8343 16.9172 12.1657 16.9172 12.4472 16.7764L20.2111 12.8944C20.9482 12.5259 20.9482 11.4741 20.2111 11.1056Z" stroke="white"/>
  <path d="M20.2111 7.10557L12.4472 3.22361C12.1657 3.08284 11.8343 3.08284 11.5528 3.22361L3.78885 7.10557C3.05181 7.4741 3.05181 8.5259 3.78886 8.89443L11.5528 12.7764C11.8343 12.9172 12.1657 12.9172 12.4472 12.7764L20.2111 8.89443C20.9482 8.5259 20.9482 7.4741 20.2111 7.10557Z" stroke="white"/>
</svg>
